0
SECTION
2
HEADER
0
ENDSEC
0
SECTION
2
TABLES
0
TABLE
2
LAYER
70
8
0
LAYER
2
WALL_EXT
70
0
62
7
6
CONTINUOUS
0
LAYER
2
WALL_INT
70
0
62
8
6
CONTINUOUS
0
LAYER
2
DUCT_SUPPLY
70
0
62
5
6
CONTINUOUS
0
LAYER
2
DUCT_EXTRACT
70
0
62
30
6
CONTINUOUS
0
LAYER
2
DUCT_OA
70
0
62
3
6
CONTINUOUS
0
LAYER
2
DUCT_EA
70
0
62
9
6
CONTINUOUS
0
LAYER
2
TEXT
70
0
62
7
6
CONTINUOUS
0
LAYER
2
EQUIPMENT
70
0
62
8
6
CONTINUOUS
0
ENDTAB
0
ENDSEC
0
SECTION
2
ENTITIES
0
LINE
8
WALL_EXT
10
0
20
0
30
0
11
12000
21
0
31
0
0
LINE
8
WALL_EXT
10
0
20
8000
30
0
11
12000
21
8000
31
0
0
LINE
8
WALL_EXT
10
0
20
0
30
0
11
0
21
8000
31
0
0
LINE
8
WALL_EXT
10
12000
20
0
30
0
11
12000
21
8000
31
0
0
LINE
8
WALL_INT
10
7200.0
20
0
30
0
11
7200.0
21
3000
31
0
0
LINE
8
WALL_INT
10
7200.0
20
4000
30
0
11
7200.0
21
8000
31
0
0
LINE
8
WALL_INT
10
0
20
4600.0
30
0
11
5000
21
4600.0
31
0
0
LINE
8
WALL_INT
10
6000
20
4600.0
30
0
11
7200.0
21
4600.0
31
0
0
LINE
8
WALL_INT
10
7200.0
20
2700.0
30
0
11
12000
21
2700.0
31
0
0
LINE
8
WALL_INT
10
7200.0
20
5600.0
30
0
11
12000
21
5600.0
31
0
0
LINE
8
WALL_INT
10
9600.0
20
0
30
0
11
9600.0
21
5600.0
31
0
0
LINE
8
WALL_INT
10
10400.0
20
5600.0
30
0
11
10400.0
21
8000
31
0
0
LINE
8
DUCT_SUPPLY
10
10050.0
20
6450.0
30
0
11
7200.0
21
6450.0
31
0
0
TEXT
8
TEXT
10
8625.0
20
6570.0
30
0
40
160.0
1
SUP main 60 L/s
0
LINE
8
DUCT_SUPPLY
10
7200.0
20
6450.0
30
0
11
7200.0
21
1100.0
31
0
0
TEXT
8
TEXT
10
7200.0
20
3895.0000000000005
30
0
40
160.0
1
SUP trunk
0
LINE
8
DUCT_SUPPLY
10
7200.0
20
6000.0
30
0
11
3200.0
21
6000.0
31
0
0
TEXT
8
TEXT
10
5200.0
20
6120.0
30
0
40
160.0
1
15 L/s
0
LINE
8
DUCT_SUPPLY
10
7200.0
20
2000.0
30
0
11
3000.0
21
2000.0
31
0
0
TEXT
8
TEXT
10
5100.0
20
2120.0
30
0
40
160.0
1
15 L/s
0
LINE
8
DUCT_SUPPLY
10
7200.0
20
3500.0
30
0
11
10400.0
21
3500.0
31
0
0
TEXT
8
TEXT
10
8800.0
20
3620.0
30
0
40
160.0
1
15 L/s
0
LINE
8
DUCT_SUPPLY
10
7200.0
20
1100.0
30
0
11
10600.0
21
1100.0
31
0
0
TEXT
8
TEXT
10
8900.0
20
1220.0000000000002
30
0
40
160.0
1
15 L/s
0
LINE
8
DUCT_EXTRACT
10
10050.0
20
7050.0
30
0
11
7200.0
21
7050.0
31
0
0
TEXT
8
TEXT
10
8625.0
20
7170.0
30
0
40
160.0
1
EXT main 60 L/s
0
LINE
8
DUCT_EXTRACT
10
7200.0
20
7050.0
30
0
11
7200.0
21
4100.0
31
0
0
TEXT
8
TEXT
10
7200.0
20
5694.999999999999
30
0
40
160.0
1
EXT trunk
0
LINE
8
DUCT_EXTRACT
10
7200.0
20
5400.0
30
0
11
4800.0
21
5400.0
31
0
0
TEXT
8
TEXT
10
6000.0
20
5520.000000000001
30
0
40
160.0
1
Kitchen 30/50 L/s
0
LINE
8
DUCT_EXTRACT
10
7200.0
20
4100.0
30
0
11
9050.0
21
4100.0
31
0
0
TEXT
8
TEXT
10
8125.0
20
4220.0
30
0
40
160.0
1
Bath 20/25 L/s
0
LINE
8
DUCT_EXTRACT
10
10050.0
20
6250.0
30
0
11
10950.0
21
6250.0
31
0
0
TEXT
8
TEXT
10
10500.0
20
6370.0
30
0
40
160.0
1
Laundry 10 L/s
0
LINE
8
DUCT_OA
10
11250.0
20
7050.0
30
0
11
12300.0
21
7050.0
31
0
0
TEXT
8
TEXT
10
11775.0
20
7170.0
30
0
40
160.0
1
OA 60/85 L/s
0
LINE
8
DUCT_EA
10
11250.0
20
6450.0
30
0
11
12300.0
21
6450.0
31
0
0
TEXT
8
TEXT
10
11775.0
20
6570.0
30
0
40
160.0
1
EA 60/85 L/s
0
CIRCLE
8
DUCT_SUPPLY
10
3200.0
20
6000.0
30
0
40
180.0
0
TEXT
8
TEXT
10
3400.0000000000005
20
6100.0
30
0
40
180.0
1
S1
0
CIRCLE
8
DUCT_SUPPLY
10
3000.0
20
2000.0
30
0
40
180.0
0
TEXT
8
TEXT
10
3200.0
20
2100.0
30
0
40
180.0
1
S2
0
CIRCLE
8
DUCT_SUPPLY
10
10400.0
20
3500.0
30
0
40
180.0
0
TEXT
8
TEXT
10
10600.0
20
3600.0
30
0
40
180.0
1
S3
0
CIRCLE
8
DUCT_SUPPLY
10
10600.0
20
1100.0
30
0
40
180.0
0
TEXT
8
TEXT
10
10799.999999999998
20
1200.0000000000002
30
0
40
180.0
1
S4
0
CIRCLE
8
DUCT_EXTRACT
10
4800.0
20
5400.0
30
0
40
180.0
0
TEXT
8
TEXT
10
5000.0
20
5500.0
30
0
40
180.0
1
E1
0
CIRCLE
8
DUCT_EXTRACT
10
9050.0
20
4100.0
30
0
40
180.0
0
TEXT
8
TEXT
10
9250.0
20
4199.999999999999
30
0
40
180.0
1
E2
0
CIRCLE
8
DUCT_EXTRACT
10
10950.0
20
6250.0
30
0
40
180.0
0
TEXT
8
TEXT
10
11149.999999999998
20
6350.0
30
0
40
180.0
1
E3
0
LINE
8
EQUIPMENT
10
10075.000000000002
20
6375.0
30
0
11
11225.0
21
6375.0
31
0
0
LINE
8
EQUIPMENT
10
11225.0
20
6375.0
30
0
11
11225.0
21
7125.0
31
0
0
LINE
8
EQUIPMENT
10
11225.0
20
7125.0
30
0
11
10075.000000000002
21
7125.0
31
0
0
LINE
8
EQUIPMENT
10
10075.000000000002
20
7125.0
30
0
11
10075.000000000002
21
6375.0
31
0
0
TEXT
8
TEXT
10
10300.0
20
6750.0
30
0
40
200.0
1
MVHR
0
TEXT
8
TEXT
10
1200.0
20
6200.0
30
0
40
180.0
1
Kitchen / dining
0
TEXT
8
TEXT
10
2100.0
20
2200.0
30
0
40
180.0
1
Living / lounge
0
TEXT
8
TEXT
10
8150.0
20
1300.0
30
0
40
180.0
1
Bedroom 2
0
TEXT
8
TEXT
10
10650.0
20
1300.0
30
0
40
180.0
1
Bedroom 1
0
TEXT
8
TEXT
10
8450.0
20
4100.0
30
0
40
180.0
1
Bathroom
0
TEXT
8
TEXT
10
10950.0
20
6550.0
30
0
40
180.0
1
Laundry
0
TEXT
8
TEXT
10
10650.0
20
7250.0
30
0
40
180.0
1
MVHR / service
0
TEXT
8
TEXT
10
0
20
8350.0
30
0
40
220.0
1
NZ Home MVHR / ERV Ventilation Layout - Concept Plan
0
ENDSEC
0
EOF